<?xml version="1.0" encoding="UTF-8" standalone="no" ?>
<!DOCTYPE svg PUBLIC "-//W3C//DTD SVG 1.1//EN" "http://www.w3.org/Graphics/SVG/1.1/DTD/svg11.dtd">
<svg xmlns="http://www.w3.org/2000/svg" xmlns:xlink="http://www.w3.org/1999/xlink" version="1.1" width="96" height="96" viewBox="0 0 96 96" xml:space="preserve">
<desc>Created with Fabric.js 5.2.4</desc>
<defs>
</defs>
<rect x="0" y="0" width="100%" height="100%" fill="transparent"></rect>
<g transform="matrix(Infinity NaN NaN Infinity 0 0)" id="2185715e-c2f0-4c33-aad5-96631c7c79a8"  >
</g>
<g transform="matrix(1 0 0 1 48 48)" id="3d382a20-d94e-4938-b84d-4ca64155d29e"  >
<rect style="stroke: none; stroke-width: 1; stroke-dasharray: none; stroke-linecap: butt; stroke-dashoffset: 0; stroke-linejoin: miter; stroke-miterlimit: 4; fill: rgb(167,20,20); fill-rule: nonzero; opacity: 1; visibility: hidden;" vector-effect="non-scaling-stroke"  x="-48" y="-48" rx="0" ry="0" width="96" height="96" />
</g>
<g transform="matrix(1 0 0 1 48 48)"  >
<g style="" vector-effect="non-scaling-stroke"   >
		<g transform="matrix(1 0 0 1 0 0)"  >
<path style="stroke: none; stroke-width: 1; stroke-dasharray: none; stroke-linecap: butt; stroke-dashoffset: 0; stroke-linejoin: miter; stroke-miterlimit: 4; fill: rgb(126,87,194); fill-rule: nonzero; opacity: 1;" vector-effect="non-scaling-stroke"  transform=" translate(-36, -48)" d="M 0 2 L 0 94 C 0 95.1 0.9 96 2 96 L 70 96 C 71.1 96 72 95.1 72 94 L 72 28 L 50 28 C 48.9 28 48 27.1 48 26 L 48 0 L 2 0 C 0.9 0 0 0.9 0 2 z" stroke-linecap="round" />
</g>
		<g transform="matrix(1 0 0 1 25.95 -35.4)"  >
<path style="stroke: none; stroke-width: 1; stroke-dasharray: none; stroke-linecap: butt; stroke-dashoffset: 0; stroke-linejoin: miter; stroke-miterlimit: 4; fill: rgb(126,87,194); fill-rule: nonzero; opacity: 1;" vector-effect="non-scaling-stroke"  transform=" translate(-61.95, -12.6)" d="M 71.9 24 C 71.80000000000001 23.6 71.7 23.3 71.5 23 L 52 1.2 L 52 24 L 71.9 24 z" stroke-linecap="round" />
</g>
		<g transform="matrix(1 0 0 1 0 0.2)"  >
<path style="stroke: none; stroke-width: 1; stroke-dasharray: none; stroke-linecap: butt; stroke-dashoffset: 0; stroke-linejoin: miter; stroke-miterlimit: 4; fill: rgb(255,255,255); fill-rule: nonzero; opacity: 1;" vector-effect="non-scaling-stroke"  transform=" translate(-36, -48.2)" d="M 6 41 L 66 41 L 66 90 L 6 90 L 6 41 z M 6.6 6.399999999999999 L 13.8 6.399999999999999 L 13.8 9.299999999999999 L 9.9 9.299999999999999 L 9.9 12 L 13 12 L 13 14.9 L 9.9 14.9 L 9.9 17.8 L 14 17.8 L 14 20.7 L 6.6 20.7 L 6.6 6.4 z M 17.6 6.399999999999999 L 21.200000000000003 6.399999999999999 L 22.500000000000004 12.399999999999999 C 22.700000000000003 13.299999999999999 22.900000000000002 14.799999999999999 22.900000000000002 14.799999999999999 L 23.000000000000004 14.799999999999999 C 23.000000000000004 14.799999999999999 23.200000000000003 13.299999999999999 23.400000000000002 12.399999999999999 L 24.700000000000003 6.399999999999999 L 28.300000000000004 6.399999999999999 L 29.200000000000003 20.7 L 26.200000000000003 20.7 L 26.000000000000004 14.299999999999999 C 25.900000000000002 13.2 26.000000000000004 11.899999999999999 26.000000000000004 11.899999999999999 L 25.900000000000002 11.899999999999999 C 25.900000000000002 11.899999999999999 25.700000000000003 13.399999999999999 25.500000000000004 14.299999999999999 L 24.600000000000005 18.4 L 21.400000000000006 18.4 L 20.500000000000007 14.299999999999999 C 20.300000000000008 13.399999999999999 20.10000000000001 11.899999999999999 20.10000000000001 11.899999999999999 L 20 11.899999999999999 C 20 11.899999999999999 20.1 13.2 20 14.299999999999999 L 19.6 20.7 L 16.6 20.7 L 17.6 6.399999999999999 z M 32.7 6.399999999999999 L 36 6.399999999999999 L 36 17.799999999999997 L 40.3 17.799999999999997 L 40.3 20.699999999999996 L 32.699999999999996 20.699999999999996 L 32.699999999999996 6.4 z" stroke-linecap="round" />
</g>
		<g transform="matrix(1 0 0 1 0 18)"  >
<path style="stroke: rgb(126,87,194); stroke-width: 0.75; stroke-dasharray: none; stroke-linecap: butt; stroke-dashoffset: 0; stroke-linejoin: miter; stroke-miterlimit: 10; fill: rgb(126,87,194); fill-rule: nonzero; opacity: 1;" vector-effect="non-scaling-stroke"  transform=" translate(-36, -66)" d="M 21.9 77.2 L 50.2 77.2 L 40.5 67.9 L 36 71.7 L 31.5 67.9 L 21.9 77.2 z M 56 52 L 56 80 L 16 80 L 16 52 L 56 52 z M 42.6 66.2 L 53.3 76.5 L 53.3 57.2 L 42.599999999999994 66.2 z M 18.4 76.5 L 29.099999999999998 66.2 L 18.4 57.2 L 18.4 76.5 z M 19.799999999999997 54.8 L 35.699999999999996 68.2 L 51.599999999999994 54.800000000000004 L 19.8 54.800000000000004 z" stroke-linecap="round" />
</g>
</g>
</g>
<g transform="matrix(0.62 0 0 0.6 24.26 48)" id="c1afe35f-57ab-4d6a-b07c-7de1d778b312"  >
<path style="stroke: rgb(255,255,255); stroke-width: 1; stroke-dasharray: none; stroke-linecap: butt; stroke-dashoffset: 0; stroke-linejoin: miter; stroke-miterlimit: 4; fill: rgb(23,23,23); fill-rule: nonzero; opacity: 1;" vector-effect="non-scaling-stroke"  transform=" translate(-50, -48.46)" d="M 52.974 18.768 L 17.441 54.302 C 14.142999999999999 57.653999999999996 12.466999999999999 61.98 12.466999999999999 66.361 C 12.466999999999999 70.74200000000002 14.142999999999999 75.12100000000001 17.441 78.422 C 20.741 81.776 25.121 83.39699999999999 29.502 83.39699999999999 C 33.829 83.39699999999999 38.21 81.776 41.563 78.422 L 83.58500000000001 36.4 C 86.233 33.75 87.533 30.342999999999996 87.533 26.881999999999998 C 87.533 23.473999999999997 86.179 20.066999999999997 83.58500000000001 17.470999999999997 L 83.58500000000001 17.416999999999998 C 80.989 14.820999999999998 77.58200000000001 13.522999999999998 74.12 13.522999999999998 C 70.71300000000001 13.522999999999998 67.25200000000001 14.820999999999998 64.65700000000001 17.416999999999998 L 32.151 49.919 C 30.204000000000004 51.921 29.177000000000003 54.516999999999996 29.177000000000003 57.11 C 29.177000000000003 59.708 30.204000000000004 62.303 32.151 64.305 C 34.152 66.25 36.749 67.28 39.344 67.28 L 39.344 67.223 C 41.939 67.223 44.589 66.25 46.538000000000004 64.30499999999999 L 73.146 37.69599999999999 L 69.415 33.96399999999999 L 42.807 60.573 C 41.889 61.546 40.588 62.032000000000004 39.345 62.032000000000004 L 39.345 61.979000000000006 C 38.102 61.979000000000006 36.803 61.54500000000001 35.885 60.57300000000001 C 34.911 59.65500000000001 34.477 58.354000000000006 34.477 57.11000000000001 C 34.477 55.86800000000001 34.910999999999994 54.56900000000001 35.885 53.651 L 68.386 21.148000000000003 C 69.955 19.579000000000004 72.064 18.768000000000004 74.119 18.768000000000004 C 76.23 18.768000000000004 78.339 19.580000000000005 79.906 21.148000000000003 C 81.47500000000001 22.716000000000005 82.286 24.825000000000003 82.286 26.881000000000004 C 82.286 28.990000000000002 81.475 31.099000000000004 79.906 32.667 L 37.83 74.745 C 35.559 77.013 32.531 78.149 29.500999999999998 78.149 C 26.473 78.149 23.443999999999996 77.012 21.119 74.745 L 21.173 74.745 C 18.848 72.417 17.712999999999997 69.39 17.712999999999997 66.36 C 17.712999999999997 63.333 18.848 60.303 21.173 58.03 L 56.703 22.445 L 52.974 18.768 z" stroke-linecap="round" />
</g>
</svg>