<?xml version="1.0" encoding="UTF-8" standalone="no" ?>
<!DOCTYPE svg PUBLIC "-//W3C//DTD SVG 1.1//EN" "http://www.w3.org/Graphics/SVG/1.1/DTD/svg11.dtd">
<svg xmlns="http://www.w3.org/2000/svg" xmlns:xlink="http://www.w3.org/1999/xlink" version="1.1" width="1080" height="1080" viewBox="0 0 1080 1080" xml:space="preserve">
<desc>Created with Fabric.js 5.2.4</desc>
<defs>
</defs>
<g transform="matrix(1 0 0 1 540 540)" id="ff35d25c-1469-4db8-aa37-e69de99e92e7"  >
<rect style="stroke: none; stroke-width: 1; stroke-dasharray: none; stroke-linecap: butt; stroke-dashoffset: 0; stroke-linejoin: miter; stroke-miterlimit: 4; fill: rgb(255,255,255); fill-rule: nonzero; opacity: 1; visibility: hidden;" vector-effect="non-scaling-stroke"  x="-540" y="-540" rx="0" ry="0" width="1080" height="1080" />
</g>
<g transform="matrix(1 0 0 1 540 540)" id="f816f122-5db6-4da6-b726-59dd12fcf8eb"  >
</g>
<g transform="matrix(1 0 0 1 540 540)" id="e5060f43-67b4-4d76-9a3d-e4bedd44a213"  >
<path style="stroke: rgb(0,0,0); stroke-width: 0; stroke-dasharray: none; stroke-linecap: butt; stroke-dashoffset: 0; stroke-linejoin: miter; stroke-miterlimit: 4; fill: rgb(136,136,139); fill-rule: nonzero; opacity: 1;" vector-effect="non-scaling-stroke"  transform=" translate(-224, -256)" d="M 384 16 C 410.5 16 432 37.5 432 64 L 432 448 C 432 474.5 410.5 496 384 496 L 64 496 C 37.5 496 16 474.5 16 448 L 16 64 C 16 37.5 37.5 16 64 16 L 384 16 z M 64 0 C 28.7 0 0 28.7 0 64 L 0 448 C 0 483.3 28.7 512 64 512 L 384 512 C 419.3 512 448 483.3 448 448 L 448 64 C 448 28.700000000000003 419.3 0 384 0 L 64 0 z M 192 128 C 192 132.4 195.6 136 200 136 L 376 136 C 380.4 136 384 132.4 384 128 C 384 123.6 380.4 120 376 120 L 200 120 C 195.6 120 192 123.6 192 128 z M 192 256 C 192 260.4 195.6 264 200 264 L 376 264 C 380.4 264 384 260.4 384 256 C 384 251.60000000000002 380.4 248 376 248 L 200 248 C 195.6 248 192 251.6 192 256 z M 192 384 C 192 388.4 195.6 392 200 392 L 376 392 C 380.4 392 384 388.4 384 384 C 384 379.6 380.4 376 376 376 L 200 376 C 195.6 376 192 379.6 192 384 z M 104 344 L 88 344 C 70.3 344 56 358.3 56 376 L 56 392 C 56 409.7 70.3 424 88 424 L 104 424 C 121.7 424 136 409.7 136 392 L 136 376 C 136 358.3 121.7 344 104 344 z M 72 376 C 72 367.2 79.2 360 88 360 L 104 360 C 112.8 360 120 367.2 120 376 L 120 392 C 120 400.8 112.8 408 104 408 L 88 408 C 79.2 408 72 400.8 72 392 L 72 376 z M 88 216 C 70.3 216 56 230.3 56 248 L 56 264 C 56 281.7 70.3 296 88 296 L 104 296 C 121.7 296 136 281.7 136 264 L 136 248 C 136 230.3 121.7 216 104 216 L 88 216 z M 88 232 L 104 232 C 112.8 232 120 239.2 120 248 L 120 264 C 120 272.8 112.8 280 104 280 L 88 280 C 79.2 280 72 272.8 72 264 L 72 248 C 72 239.2 79.2 232 88 232 z M 104 88 L 88 88 C 70.3 88 56 102.3 56 120 L 56 136 C 56 153.7 70.3 168 88 168 L 104 168 C 121.7 168 136 153.7 136 136 L 136 120 C 136 102.3 121.7 88 104 88 z M 72 120 C 72 111.2 79.2 104 88 104 L 104 104 C 112.8 104 120 111.2 120 120 L 120 136 C 120 144.8 112.8 152 104 152 L 88 152 C 79.2 152 72 144.8 72 136 L 72 120 z" stroke-linecap="round" />
</g>
<g transform="matrix(NaN NaN NaN NaN 0 0)"  >
<g style=""   >
</g>
</g>
</svg>